<?xml version="1.0" standalone="no"?>
<!DOCTYPE svg PUBLIC "-//W3C//DTD SVG 20010904//EN"
 "http://www.w3.org/TR/2001/REC-SVG-20010904/DTD/svg10.dtd">
<svg version="1.0" xmlns="http://www.w3.org/2000/svg"
 width="50.000000pt" height="50.000000pt" viewBox="0 0 50.000000 50.000000"
 preserveAspectRatio="xMidYMid meet">

<g transform="translate(0.000000,50.000000) scale(0.100000,-0.100000)"
fill="#000000" stroke="none">
<path d="M230 482 c-19 -9 -45 -33 -58 -52 -20 -29 -23 -45 -20 -92 l4 -58
-29 0 c-40 0 -87 -48 -87 -90 0 -43 47 -90 90 -90 41 0 90 47 90 87 0 15 -7
50 -15 77 -28 91 -15 155 36 182 48 24 87 18 125 -20 54 -54 47 -101 -32 -217
-29 -41 -48 -81 -51 -107 -5 -36 -2 -45 25 -72 38 -38 80 -40 119 -6 21 19 25
27 16 36 -9 10 -17 9 -34 -4 -29 -20 -53 -20 -73 0 -27 26 -18 58 38 143 36
54 57 97 61 126 19 126 -94 213 -205 157z m-66 -258 c31 -30 9 -84 -34 -84
-24 0 -50 26 -50 50 0 24 26 50 50 50 10 0 26 -7 34 -16z"/>
</g>
</svg>
