<svg width="100" height="115" viewBox="0 0 100 115" fill="none" xmlns="http://www.w3.org/2000/svg">
<path d="M72.9167 21.5625C64.7917 21.5625 56.0417 23.4792 50 28.75C43.9583 23.4792 35.2083 21.5625 27.0833 21.5625C21.0417 21.5625 14.625 22.6167 9.25 25.3479C6.20833 26.9292 4.16666 30.3312 4.16666 34.2125V88.2625C4.16666 94.4917 9.25 99.0917 14.5 97.5583C18.5833 96.3604 22.9167 95.8333 27.0833 95.8333C33.5833 95.8333 40.5 97.0792 46.0833 100.242C48.5833 101.679 51.4167 101.679 53.875 100.242C59.4583 97.0312 66.375 95.8333 72.875 95.8333C77.0417 95.8333 81.375 96.3604 85.4583 97.5583C90.7083 99.1396 95.7917 94.5396 95.7917 88.2625V34.2125C95.7917 30.3312 93.75 26.9292 90.7083 25.3479C85.375 22.6167 78.9583 21.5625 72.9167 21.5625ZM87.5 82.5604C87.5 85.5792 85.0833 87.7833 82.5 87.2562C79.375 86.5854 76.125 86.2979 72.9167 86.2979C65.8333 86.2979 55.625 89.4125 50 93.4854V38.3333C55.625 34.2604 65.8333 31.1458 72.9167 31.1458C76.75 31.1458 80.5417 31.5771 84.1667 32.4875C86.0833 32.9667 87.5 34.9313 87.5 37.1833V82.5604Z" fill="#A3BA0D"/>
<path d="M58.25 52.7562C56.9167 52.7562 55.7083 51.7979 55.2917 50.2646C54.75 48.3958 55.6667 46.3353 57.2917 45.7603C63.7083 43.3645 72 42.5978 79.625 43.6041C81.3333 43.8437 82.5833 45.6166 82.375 47.5812C82.1667 49.5458 80.625 50.9833 78.9167 50.7437C72.1667 49.8333 64.7917 50.5521 59.2083 52.6125C58.875 52.6604 58.5417 52.7562 58.25 52.7562Z" fill="#A3BA0D"/>
<path d="M58.25 65.5021C56.9167 65.5021 55.7083 64.5438 55.2917 63.0104C54.75 61.1417 55.6667 59.0813 57.2917 58.5063C63.6667 56.1104 72 55.3438 79.625 56.35C81.3333 56.5896 82.5833 58.3625 82.375 60.3271C82.1667 62.2917 80.625 63.7292 78.9167 63.4896C72.1667 62.5792 64.7917 63.2979 59.2083 65.3583C58.875 65.4542 58.5417 65.5021 58.25 65.5021Z" fill="#A3BA0D"/>
<path d="M58.25 78.2479C56.9167 78.2479 55.7083 77.2896 55.2917 75.7563C54.75 73.8875 55.6667 71.8271 57.2917 71.2521C63.6667 68.8562 72 68.0896 79.625 69.0958C81.3333 69.3354 82.5833 71.1083 82.375 73.0729C82.1667 75.0375 80.625 76.4271 78.9167 76.2354C72.1667 75.325 64.7917 76.0437 59.2083 78.1042C58.875 78.2 58.5417 78.2479 58.25 78.2479Z" fill="#A3BA0D"/>
</svg>
