<svg width="70" height="70" viewBox="0 0 70 70" fill="none" xmlns="http://www.w3.org/2000/svg">
<path d="M36.8958 45.7041C37.3042 44.6541 37.0417 43.4582 36.225 42.6416L30.1292 36.6333L30.2167 36.5457C35.2917 30.8874 38.9083 24.3833 41.0375 17.4999H46.6958C48.2708 17.4999 49.5833 16.1874 49.5833 14.6124V14.5541C49.5833 12.9791 48.2708 11.6666 46.6958 11.6666H29.1667V8.74992C29.1667 7.14575 27.8542 5.83325 26.25 5.83325C24.6458 5.83325 23.3333 7.14575 23.3333 8.74992V11.6666H5.80416C4.22916 11.6666 2.91666 12.9791 2.91666 14.5541C2.91666 16.1583 4.22916 17.4416 5.80416 17.4416H35.4958C33.5417 23.0999 30.45 28.4374 26.25 33.1041C23.8875 30.5083 21.9042 27.6791 20.2417 24.7041C19.775 23.8583 18.9292 23.3333 17.9667 23.3333C15.9542 23.3333 14.6708 25.5208 15.6625 27.2708C17.5 30.5666 19.7458 33.7166 22.3708 36.6333L9.625 49.2041C8.45833 50.3416 8.45833 52.2083 9.625 53.3458C10.7625 54.4833 12.6 54.4833 13.7667 53.3458L26.25 40.8333L32.1417 46.7249C33.6292 48.2124 36.1667 47.6582 36.8958 45.7041ZM51.0417 29.1666C49.2917 29.1666 47.7167 30.2457 47.1042 31.9082L36.4 60.4916C35.7 62.2707 37.0417 64.1666 38.9375 64.1666C40.075 64.1666 41.0958 63.4666 41.5042 62.3874L44.1 55.4166H57.9542L60.5792 62.3874C60.9875 63.4374 62.0083 64.1666 63.1458 64.1666C65.0417 64.1666 66.3833 62.2707 65.7125 60.4916L55.0083 31.9082C54.3667 30.2457 52.7917 29.1666 51.0417 29.1666ZM46.3167 49.5832L51.0417 36.9541L55.7667 49.5832H46.3167Z" fill="#204345"/>
</svg>
