<svg width="350" height="60" viewBox="0 0 350 60" fill="none" xmlns="http://www.w3.org/2000/svg">
<path d="M0 0H350V60H0V0Z" fill="black"/>
<path d="M84.28 42L81 32.64H72.68L69.4 42H65.6L74.84 15.44H78.84L88.08 42H84.28ZM76.84 20.6L73.8 29.28H79.84L76.84 20.6Z" fill="white"/>
<path d="M96.8828 25.6V42H93.4828V25.6H90.4828V22H93.4828V15.4H96.8828V22H99.8828V25.6H96.8828Z" fill="white"/>
<path d="M118.489 42V38.96C117.636 39.9467 116.649 40.7333 115.529 41.32C114.409 41.9067 113.222 42.2 111.969 42.2C110.582 42.2 109.276 41.9467 108.049 41.44C106.849 40.9333 105.782 40.2133 104.849 39.28C103.916 38.3733 103.182 37.3067 102.649 36.08C102.142 34.8267 101.889 33.52 101.889 32.16C101.889 30.8 102.142 29.5067 102.649 28.28C103.182 27.0267 103.916 25.9333 104.849 25C105.782 24.0667 106.849 23.3467 108.049 22.84C109.276 22.3333 110.582 22.08 111.969 22.08C113.249 22.08 114.449 22.3467 115.569 22.88C116.716 23.4133 117.689 24.16 118.489 25.12V22.48H122.089V42H118.489ZM111.969 25.64C111.089 25.64 110.236 25.8133 109.409 26.16C108.609 26.48 107.916 26.9333 107.329 27.52C106.742 28.1067 106.276 28.8133 105.929 29.64C105.609 30.44 105.449 31.28 105.449 32.16C105.449 33.04 105.609 33.88 105.929 34.68C106.276 35.48 106.742 36.1733 107.329 36.76C107.916 37.3467 108.609 37.8133 109.409 38.16C110.236 38.48 111.089 38.64 111.969 38.64C112.849 38.64 113.689 38.48 114.489 38.16C115.289 37.8133 115.982 37.3467 116.569 36.76C117.156 36.1733 117.609 35.48 117.929 34.68C118.276 33.88 118.449 33.04 118.449 32.16C118.449 31.28 118.276 30.44 117.929 29.64C117.609 28.8133 117.156 28.1067 116.569 27.52C115.982 26.9333 115.289 26.48 114.489 26.16C113.689 25.8133 112.849 25.64 111.969 25.64Z" fill="white"/>
<path d="M126.078 42V15.4H129.278V42H126.078Z" fill="white"/>
<path d="M135.106 19.12C134.599 19.12 134.159 18.9467 133.786 18.6C133.439 18.2267 133.266 17.7867 133.266 17.28C133.266 16.7733 133.439 16.3467 133.786 16C134.159 15.6267 134.599 15.44 135.106 15.44C135.612 15.44 136.039 15.6267 136.386 16C136.759 16.3467 136.946 16.7733 136.946 17.28C136.946 17.7867 136.759 18.2267 136.386 18.6C136.039 18.9467 135.612 19.12 135.106 19.12ZM133.466 42V22H136.826V42H133.466Z" fill="white"/>
<path d="M155.95 42V38.96C155.097 39.9467 154.11 40.7333 152.99 41.32C151.87 41.9067 150.683 42.2 149.43 42.2C148.043 42.2 146.737 41.9467 145.51 41.44C144.31 40.9333 143.243 40.2133 142.31 39.28C141.377 38.3733 140.643 37.3067 140.11 36.08C139.603 34.8267 139.35 33.52 139.35 32.16C139.35 30.8 139.603 29.5067 140.11 28.28C140.643 27.0267 141.377 25.9333 142.31 25C143.243 24.0667 144.31 23.3467 145.51 22.84C146.737 22.3333 148.043 22.08 149.43 22.08C150.71 22.08 151.91 22.3467 153.03 22.88C154.177 23.4133 155.15 24.16 155.95 25.12V22.48H159.55V42H155.95ZM149.43 25.64C148.55 25.64 147.697 25.8133 146.87 26.16C146.07 26.48 145.377 26.9333 144.79 27.52C144.203 28.1067 143.737 28.8133 143.39 29.64C143.07 30.44 142.91 31.28 142.91 32.16C142.91 33.04 143.07 33.88 143.39 34.68C143.737 35.48 144.203 36.1733 144.79 36.76C145.377 37.3467 146.07 37.8133 146.87 38.16C147.697 38.48 148.55 38.64 149.43 38.64C150.31 38.64 151.15 38.48 151.95 38.16C152.75 37.8133 153.443 37.3467 154.03 36.76C154.617 36.1733 155.07 35.48 155.39 34.68C155.737 33.88 155.91 33.04 155.91 32.16C155.91 31.28 155.737 30.44 155.39 29.64C155.07 28.8133 154.617 28.1067 154.03 27.52C153.443 26.9333 152.75 26.48 151.95 26.16C151.15 25.8133 150.31 25.64 149.43 25.64Z" fill="white"/>
<path d="M181.547 42V15.4H184.987V38.4H192.987V42H181.547Z" fill="white"/>
<path d="M204.704 42.2C203.344 42.2 202.051 41.9333 200.824 41.4C199.598 40.8667 198.518 40.1333 197.584 39.2C196.651 38.2667 195.918 37.1867 195.384 35.96C194.851 34.7333 194.584 33.44 194.584 32.08C194.584 30.6933 194.851 29.3733 195.384 28.12C195.918 26.8667 196.651 25.7733 197.584 24.84C198.518 23.9067 199.598 23.1867 200.824 22.68C202.051 22.1467 203.344 21.88 204.704 21.88C206.091 21.88 207.411 22.1467 208.664 22.68C209.918 23.1867 211.011 23.9067 211.944 24.84C212.878 25.7733 213.598 26.8667 214.104 28.12C214.638 29.3733 214.904 30.6933 214.904 32.08C214.904 33.44 214.638 34.7333 214.104 35.96C213.598 37.1867 212.878 38.2667 211.944 39.2C211.011 40.1333 209.918 40.8667 208.664 41.4C207.411 41.9333 206.091 42.2 204.704 42.2ZM204.704 25.44C202.918 25.44 201.384 26.08 200.104 27.36C199.491 27.9733 199.011 28.6933 198.664 29.52C198.318 30.3467 198.144 31.2 198.144 32.08C198.144 32.96 198.318 33.8 198.664 34.6C199.011 35.4 199.491 36.1067 200.104 36.72C200.718 37.3333 201.411 37.8133 202.184 38.16C202.984 38.5067 203.824 38.68 204.704 38.68C205.584 38.68 206.438 38.5067 207.264 38.16C208.091 37.8133 208.798 37.3333 209.384 36.72C209.971 36.1067 210.438 35.4 210.784 34.6C211.131 33.8 211.304 32.96 211.304 32.08C211.304 31.2 211.131 30.3467 210.784 29.52C210.438 28.6933 209.971 27.9733 209.384 27.36C208.798 26.7467 208.091 26.28 207.264 25.96C206.464 25.6133 205.611 25.44 204.704 25.44Z" fill="white"/>
<path d="M230.5 41.88V40.2C229.967 40.76 229.287 41.2267 228.46 41.6C227.66 41.9733 226.86 42.16 226.06 42.16C224.993 42.16 223.967 41.96 222.98 41.56C222.02 41.1333 221.167 40.5467 220.42 39.8C219.7 39.0533 219.127 38.2 218.7 37.24C218.3 36.2533 218.1 35.2133 218.1 34.12V22H221.62V34.12C221.62 35.3467 222.06 36.4 222.94 37.28C223.82 38.16 224.86 38.6 226.06 38.6C226.62 38.6 227.18 38.48 227.74 38.24C228.3 38 228.78 37.68 229.18 37.28C230.06 36.4 230.5 35.3467 230.5 34.12V22H233.98V41.88H230.5Z" fill="white"/>
<path d="M246.912 25.84C246.272 25.5467 245.699 25.4 245.192 25.4C244.126 25.4 243.246 25.7733 242.552 26.52C241.806 27.32 241.432 28.24 241.432 29.28V42H237.992V29.28C237.992 27.84 238.352 26.52 239.072 25.32C239.819 24.12 240.832 23.1867 242.112 22.52C243.072 22.0667 244.099 21.84 245.192 21.84C246.072 21.84 246.912 22 247.712 22.32C248.512 22.64 249.352 23.16 250.232 23.88L246.912 25.84Z" fill="white"/>
<path d="M253.698 33.52C253.698 34.16 253.924 34.8267 254.378 35.52C254.858 36.2133 255.404 36.8 256.018 37.28C257.138 38.16 258.444 38.6 259.938 38.6C262.311 38.6 264.244 37.4533 265.738 35.16L268.778 36.96C267.738 38.64 266.458 39.9333 264.938 40.84C263.418 41.7467 261.751 42.2 259.938 42.2C258.578 42.2 257.284 41.9467 256.058 41.44C254.831 40.9067 253.751 40.1733 252.818 39.24C251.884 38.3067 251.151 37.2267 250.618 36C250.111 34.7733 249.858 33.48 249.858 32.12C249.858 30.76 250.111 29.4667 250.618 28.24C251.151 26.9867 251.884 25.8933 252.818 24.96C253.724 24.0267 254.791 23.3067 256.018 22.8C257.271 22.2933 258.578 22.04 259.938 22.04C261.298 22.04 262.591 22.2933 263.818 22.8C265.071 23.3067 266.151 24.0267 267.058 24.96C269.031 26.9867 270.018 29.3333 270.018 32C270.018 32.48 269.978 32.9867 269.898 33.52H253.698ZM259.938 25.32C258.844 25.32 257.818 25.56 256.858 26.04C255.898 26.52 255.124 27.16 254.538 27.96C253.978 28.7333 253.698 29.56 253.698 30.44H266.178C266.178 29.56 265.884 28.7333 265.298 27.96C264.738 27.16 263.978 26.52 263.018 26.04C262.058 25.56 261.031 25.32 259.938 25.32Z" fill="white"/>
<path d="M285.977 42V30C285.977 28.8 285.537 27.76 284.657 26.88C283.804 26.0267 282.764 25.6 281.537 25.6C280.337 25.6 279.297 26.04 278.417 26.92C278.017 27.32 277.697 27.8 277.457 28.36C277.217 28.8933 277.097 29.44 277.097 30V42H273.617V22.48H277.097V24.12C277.604 23.5067 278.271 23 279.097 22.6C279.924 22.2 280.737 22 281.537 22C282.604 22 283.617 22.2133 284.577 22.64C285.564 23.04 286.431 23.6133 287.177 24.36C287.897 25.08 288.457 25.9333 288.857 26.92C289.284 27.88 289.497 28.9067 289.497 30V42H285.977Z" fill="white"/>
<path d="M302.709 38.6C304.576 38.6 306.203 37.8667 307.589 36.4L310.709 38.2C308.709 40.6267 306.323 41.9467 303.549 42.16L303.229 42.92C304.029 43.2133 304.656 43.6667 305.109 44.28C305.589 44.92 305.829 45.6533 305.829 46.48C305.829 47.4933 305.483 48.3733 304.789 49.12C304.469 49.44 304.083 49.6933 303.629 49.88C303.203 50.0933 302.749 50.2 302.269 50.2C301.443 50.2 300.576 49.8267 299.669 49.08L301.229 47.32C301.496 47.5333 301.669 47.6533 301.749 47.68C301.936 47.7867 302.109 47.84 302.269 47.84C302.616 47.84 302.909 47.7067 303.149 47.44C303.416 47.1733 303.549 46.8533 303.549 46.48C303.549 46.1067 303.416 45.7867 303.149 45.52C302.909 45.2533 302.616 45.12 302.269 45.12C302.136 45.12 301.883 45.1867 301.509 45.32L300.709 43.32L301.189 42.08C300.123 41.8933 299.109 41.56 298.149 41.08C297.189 40.5733 296.349 39.96 295.629 39.24C294.723 38.3333 294.003 37.2667 293.469 36.04C292.963 34.7867 292.709 33.48 292.709 32.12C292.709 30.76 292.963 29.4667 293.469 28.24C294.003 26.9867 294.723 25.9067 295.629 25C296.563 24.0667 297.629 23.3467 298.829 22.84C300.056 22.3067 301.349 22.04 302.709 22.04C305.856 22.04 308.523 23.3733 310.709 26.04L307.589 27.84C306.203 26.3733 304.576 25.64 302.709 25.64C301.829 25.64 300.989 25.8133 300.189 26.16C299.416 26.48 298.736 26.9333 298.149 27.52C297.563 28.1067 297.096 28.8 296.749 29.6C296.403 30.4 296.229 31.24 296.229 32.12C296.229 33 296.403 33.84 296.749 34.64C297.096 35.44 297.563 36.1333 298.149 36.72C298.736 37.3067 299.416 37.7733 300.189 38.12C300.989 38.44 301.829 38.6 302.709 38.6Z" fill="white"/>
<path d="M324.04 42.2C322.68 42.2 321.387 41.9333 320.16 41.4C318.934 40.8667 317.854 40.1333 316.92 39.2C315.987 38.2667 315.254 37.1867 314.72 35.96C314.187 34.7333 313.92 33.44 313.92 32.08C313.92 30.6933 314.187 29.3733 314.72 28.12C315.254 26.8667 315.987 25.7733 316.92 24.84C317.854 23.9067 318.934 23.1867 320.16 22.68C321.387 22.1467 322.68 21.88 324.04 21.88C325.427 21.88 326.747 22.1467 328 22.68C329.254 23.1867 330.347 23.9067 331.28 24.84C332.214 25.7733 332.934 26.8667 333.44 28.12C333.974 29.3733 334.24 30.6933 334.24 32.08C334.24 33.44 333.974 34.7333 333.44 35.96C332.934 37.1867 332.214 38.2667 331.28 39.2C330.347 40.1333 329.254 40.8667 328 41.4C326.747 41.9333 325.427 42.2 324.04 42.2ZM324.04 25.44C322.254 25.44 320.72 26.08 319.44 27.36C318.827 27.9733 318.347 28.6933 318 29.52C317.654 30.3467 317.48 31.2 317.48 32.08C317.48 32.96 317.654 33.8 318 34.6C318.347 35.4 318.827 36.1067 319.44 36.72C320.054 37.3333 320.747 37.8133 321.52 38.16C322.32 38.5067 323.16 38.68 324.04 38.68C324.92 38.68 325.774 38.5067 326.6 38.16C327.427 37.8133 328.134 37.3333 328.72 36.72C329.307 36.1067 329.774 35.4 330.12 34.6C330.467 33.8 330.64 32.96 330.64 32.08C330.64 31.2 330.467 30.3467 330.12 29.52C329.774 28.6933 329.307 27.9733 328.72 27.36C328.134 26.7467 327.427 26.28 326.6 25.96C325.8 25.6133 324.947 25.44 324.04 25.44Z" fill="white"/>
<path d="M9 9H59V49H9V9Z" fill="white"/>
</svg>
